<mxfile host="app.diagrams.net" modified="2024-07-04T17:17:35.356Z" agent="Mozilla/5.0 (Windows NT 10.0; Win64; x64) AppleWebKit/537.36 (KHTML, like Gecko) Chrome/126.0.0.0 Safari/537.36" etag="_mIravT28wsuyqT4Sd49" version="24.6.4" type="device">
  <diagram name="Page-1" id="yDXObKNRjAjLiQP1jVey">
    <mxGraphModel dx="880" dy="468" grid="1" gridSize="10" guides="1" tooltips="1" connect="1" arrows="1" fold="1" page="1" pageScale="1" pageWidth="850" pageHeight="1100" math="0" shadow="0">
      <root>
        <mxCell id="0" />
        <mxCell id="1" parent="0" />
        <mxCell id="b5sbPjUcrcQ9L3QDeXpB-1" value="" style="whiteSpace=wrap;html=1;aspect=fixed;strokeWidth=2;strokeColor=#CCCCCC;" vertex="1" parent="1">
          <mxGeometry x="160" y="40" width="360" height="360" as="geometry" />
        </mxCell>
        <mxCell id="b5sbPjUcrcQ9L3QDeXpB-2" value="" style="rounded=0;whiteSpace=wrap;html=1;strokeWidth=2;strokeColor=#CCCCCC;" vertex="1" parent="1">
          <mxGeometry x="190" y="58" width="300" height="30" as="geometry" />
        </mxCell>
        <mxCell id="b5sbPjUcrcQ9L3QDeXpB-3" value="" style="rounded=0;whiteSpace=wrap;html=1;strokeWidth=2;strokeColor=#CCCCCC;" vertex="1" parent="1">
          <mxGeometry x="190" y="350" width="300" height="30" as="geometry" />
        </mxCell>
        <mxCell id="b5sbPjUcrcQ9L3QDeXpB-5" value="" style="rounded=0;whiteSpace=wrap;html=1;strokeWidth=2;strokeColor=#CCCCCC;" vertex="1" parent="1">
          <mxGeometry x="258" y="169" width="180" height="30" as="geometry" />
        </mxCell>
        <mxCell id="b5sbPjUcrcQ9L3QDeXpB-6" value="" style="rounded=0;whiteSpace=wrap;html=1;strokeWidth=2;strokeColor=#CCCCCC;" vertex="1" parent="1">
          <mxGeometry x="258" y="213" width="180" height="30" as="geometry" />
        </mxCell>
        <mxCell id="b5sbPjUcrcQ9L3QDeXpB-7" value="" style="rounded=1;whiteSpace=wrap;html=1;strokeColor=#CCCCCC;strokeWidth=2;" vertex="1" parent="1">
          <mxGeometry x="258" y="260" width="62" height="30" as="geometry" />
        </mxCell>
      </root>
    </mxGraphModel>
  </diagram>
</mxfile>
